<!-- Created with Inkscape (http://www.inkscape.org/) -->
<svg id="svg2" xmlns:rdf="http://www.w3.org/1999/02/22-rdf-syntax-ns#" xmlns="http://www.w3.org/2000/svg" height="500" width="375" version="1.1" xmlns:cc="http://creativecommons.org/ns#" xmlns:dc="http://purl.org/dc/elements/1.1/">
 <metadata id="metadata8">
  <rdf:RDF>
   <cc:Work rdf:about="">
    <dc:format>image/svg+xml</dc:format>
    <dc:type rdf:resource="http://purl.org/dc/dcmitype/StillImage"/>
    <dc:title/>
   </cc:Work>
  </rdf:RDF>
 </metadata>
 <g id="g2989">
  <path id="path2993" fill="#fbfbfb" d="M0,250,0,0,187.5,0,375,0v250,250h-187.5-187.5v-250z"/>
  <path id="path2991" fill="#030303" d="M60.25,488.23c-0.962-0.97-7.507-18.9-14.544-39.85-11.353-33.8-12.66-38.39-11.612-40.69,0.64984-1.4262,2.5367-3.0656,4.1929-3.643,3.9081-1.3624,15.552-1.3505,19.483,0.0199,3.5993,1.2547,4.0725,2.3171,10.317,23.165,2.4273,8.1039,4.6623,14.741,4.9668,14.75,0.30448,0.009,2.4744-4.9458,4.822-11.01l4.2684-11.025-1.6094-4.8454c-2.9308-8.8237,0.20317-11.705,12.965-11.921,13.034-0.22065,12.65-0.60579,18.99,19.053,3.0306,9.398,5.5102,17.69,5.5102,18.426,0,3.8228,2.1438-0.35116,8.3767-16.309,6.91-17.71,9.05-21.36,12.49-21.36,2.8028,0,7.1349,3.8484,7.1349,6.3383,0,1.2062-2.8516,9.386-6.3368,18.177-3.4852,8.7914-10.269,25.999-15.075,38.239-5.6175,14.307-9.4023,22.61-10.597,23.25-2.8381,1.5189-5.7924,1.1932-7.8512-0.86565-1.0233-1.0233-5.1858-12.032-9.25-24.464-4.055-12.44-7.605-22.62-7.88-22.64-0.275-0.018-4.49,10.203-9.3666,22.714s-9.764,23.534-10.861,24.497c-2.5568,2.2437-6.29,2.2369-8.5226-0.0155zm119.44,0.52c-1.0008-0.73874-7.0322-17.03-14.747-39.831-11.516-34.038-12.916-38.883-11.888-41.14,1.6215-3.5587,4.2063-4.4558,13.519-4.692,13.472-0.34161,13.018-0.87671,20.513,24.147,2.4273,8.1039,4.6382,14.739,4.9132,14.744s2.4508-4.9314,4.8351-10.97l4.3352-10.979-1.6165-4.8668c-3.1209-9.3961,0.39188-12.17,15.006-11.85,7.9071,0.17301,8.7914,0.3993,10.777,2.7576,1.2444,1.4778,4.2873,9.6504,7.1633,19.239,2.75,9.1686,5.225,16.672,5.5,16.674s3.425-7.6729,7-17.055c6.56-17.2,9.32-21.92,12.82-21.92,2.8379,0,7.1834,3.8281,7.1771,6.3226-0.009,3.4526-29.711,77.997-31.64,79.407-2.5099,1.8353-6.064,1.5612-8.2625-0.63734-1.0663-1.0663-5.1458-11.857-9.25-24.467-4.05-12.4-7.57-22.57-7.85-22.58-0.275-0.0166-4.483,10.206-9.351,22.717-4.8992,12.591-9.7483,23.528-10.861,24.497-2.3575,2.0528-5.715,2.26-8.0993,0.5zm95.966-1.5787c-1.49-1.63-1.66-5.94-1.66-40.81,0-32.072,0.25135-39.324,1.4183-40.921,1.3406-1.8347,3.0569-1.9571,31.313-2.2324,29.141-0.28392,29.962-0.23801,32.582,1.8226,3.3048,2.5996,3.5656,6.8628,0.58514,9.5637-1.8717,1.6961-4.0647,1.9393-20,2.2181l-17.9,0.32v9.3574,9.3574l13.083,0.32947c11.576,0.29153,13.246,0.55303,14.5,2.2706,1.9973,2.7355,1.7602,5.9385-0.59732,8.0721-2.381,2.1547-3.3553,2.2947-16.735,2.4035l-10.24,0.08v18.345c0,22.75,0.71,21.66-14.17,21.66-8.918,0-10.768-0.27793-12.171-1.8287zm45.763-93.14c-2.9731-1.2027-7.1352-6.4649-7.9124-10.004-1.4611-6.6522,3.8984-14.262,10.98-15.591,6.9212-1.2984,15.514,5.8892,15.514,12.977,0,9.181-10.109,16.045-18.582,12.618zm12.725-4.6688c7.2403-6.9367,2.3875-18.562-7.7483-18.562-9.5305,0-14.13,11.273-7.5757,18.566,3.9543,4.4002,10.729,4.3985,15.324-0.004zm-11.94-7.61c0.29509-6.1948,0.32529-6.2527,3.4223-6.554,1.8967-0.18454,3.7633,0.33474,4.75,1.3214,2.0341,2.0341,2.0391,2.9261,0.0277,4.9375-1.4637,1.4637-1.4617,1.8053,0.0231,4.0714,1.2852,1.9615,1.3387,2.4737,0.25828,2.4737-0.7494,0-1.8751-1.125-2.5016-2.5-0.62649-1.375-1.8237-2.5-2.6605-2.5-0.9562,0-1.5214,0.92879-1.5214,2.5,0,1.375-0.47147,2.5-1.0477,2.5-0.65029,0-0.93478-2.3708-0.75-6.25zm7.1218-2.1522c0.71-1.85-0.14-2.6-2.99-2.6-2.2002,0-3.1334,1.8666-1.6667,3.3333,1.1751,1.1751,4.1016,0.71294,4.6574-0.73556zm-138.83-9.6142c-25.14-5-42.93-22.24-60.38-58.49-3.7067-7.7-8.927-19.062-11.601-25.25-2.6737-6.1875-5.2458-11.25-5.7159-11.25-2.8892,0-1.5744,11.063,3.2412,27.273,2.8595,9.6254,3.6287,15.839,2.3677,19.125-0.32958,0.85885-2.2421,2.5832-4.25,3.8318-3.3039,2.0545-4.8386,2.2649-16.151,2.2143-14.157-0.0634-20.377-1.7177-28.565-7.5984-9.024-6.48-18.796-22.5-26.736-43.84-6.675-17.94-7.979-24.76-8.22-43-0.143-10.89-0.766-18.88-1.829-23.5-2.91-12.64-3.774-20.8-3.76-35.5,0.045-46.52,20.172-82.367,58.899-104.89,11.236-6.536,12.043-4.771,1.591,3.485-16.483,13.02-29.456,32.248-35.014,51.908-3.1399,11.104-4.2221,30.13-2.4261,42.653,2.3049,16.072,9.6607,34.591,19.287,48.558,7.554,10.96,25.3,27.097,27.443,24.954,0.26554-0.26554-0.6498-5.1362-2.0341-10.824-3.4933-14.353-3.9256-19.085-2.6359-28.853,0.616-4.67,1.501-19.29,1.966-32.49,0.9475-26.898,2.692-36.395,9.32-50.741,6.7377-14.583,19.056-29.576,33.715-41.036,3.575-2.7949,6.8639-5.3874,7.3087-5.761,0.4448-0.37364-0.9052-3.7804-3-7.5706-3.47-6.284-3.81-7.554-3.78-14.392,0.0207-6.1595,0.50381-8.4158,2.703-12.624,8.2102-15.71,28.371-25.238,42.217-19.95,9.8125,3.7474,19.288,18.244,20.295,31.046,0.62893,8.0017-1.1792,10.208-13.053,15.93-5.0529,2.435-10.987,5.9785-13.187,7.8744-10.432,8.9898-14.158,10.211-20.808,6.821l-3.7308-1.9021-4.3885,6.1521c-23.13,32.423-27.89,73.723-11.84,102.65,7.4528,13.431,22.023,24.921,37.33,29.439,7.2208,2.131,9.0885,3.7712,13.734,12.061,5.0588,9.0265,9.0143,11.906,15.206,11.068,14.8-2.0027,16.338-1.9366,22.026,0.94549,3.4774,1.7621,7.6512,2.932,11.588,3.248l6.1528,0.49388,6.3667-6.4715,6.3667-6.4715,8.9322-0.67585c15.826-1.1975,27.83-5.457,39.219-13.918,17.247-12.811,28.544-35.933,30.048-61.501,0.39866-6.7736,0.9797-10.163,1.7027-9.9313,1.7857,0.57139,5.3837,16.717,6.6701,29.93,5.0904,52.287-15.949,138.34-40.149,164.21-7.037,7.5226-19.142,13.95-30.761,16.333-22.835,4.6838-31.835-7.2794-26.149-34.755,3.0552-14.762,3.7961-35.703,1.538-43.47-2.2566-7.7626-6.3837-12.013-10.806-11.129-8.9349,1.787-15.715,17.416-15.739,36.277-0.0174,14.211,4.2503,34.588,9.7015,46.322,6.1944,13.334,4.4974,18.312-7.5068,22.019-6.804,2.1016-24.386,2.6198-32.712,0.9643zm35.729-115.03c4.1182-1.1437,9.781-5.4288,9.781-7.4014,0-0.87493-2.7107-1.479-8.75-1.9501-4.8125-0.37534-12.945-1.4984-18.071-2.4958l-9.3213-1.8133,0.64547,2.6023c2.0526,8.2755,15.27,13.959,25.716,11.058zm-139.72,107.09c-5.1911-2.1472-8.9581-9.5052-7.8087-15.253,0.77527-3.8763,6.2124-9.3241,10.077-10.097,10.72-2.144,19.761,9.5782,14.794,19.182-3.013,5.8264-10.951,8.6956-17.063,6.1675zm11.08-2.9314c6.3245-3.8567,6.9898-12.775,1.3096-17.554-7.1664-6.0301-17.817-1.2286-17.867,8.0549-0.04861,8.9954,8.9334,14.149,16.557,9.4994zm-10.008-4.686c-2.57-2.57-2.0187-8.0894,1.0061-10.071,3.1488-2.0632,7.7022-0.87332,8.279,2.1634,0.36604,1.9272,0.32221,1.931-1.6659,0.14169-3.7645-3.388-8.0976-0.41223-6.8188,4.6829,0.52931,2.1089,1.2621,2.6548,3.5639,2.6548,1.5937,0,3.0985-0.5625,3.344-1.25,0.24554-0.6875,0.79716-0.92337,1.2258-0.52417,1.368,1.28-1.65,3.78-4.557,3.78-1.5434,0-3.5133-0.70714-4.3776-1.5714zm129.74-126.5c-2.0158-3.4246-5.9204-6.0852-11.592-7.8989-4.8773-1.5597-7.4176-5.1937-5.9232-8.4734,1.6466-3.6139,7.0918-4.9258,17.637-4.249,12.008,0.77067,20.467,3.0426,23.322,6.2634,4.4457,5.0157,1.983,8.7804-6.8195,10.425-3.0734,0.5741-7.2879,2.3139-9.7097,4.0083-2.3536,1.6467-4.4656,2.9939-4.6935,2.9939-0.22783,0-1.2272-1.3811-2.2208-3.0691zm50.591-28.192c-2.6862-1.7872-5.0893-5.6517-11.474-18.452l-8.0764-16.191,2.2481-5.5258c4.67-11.49,12.14-18.57,19.59-18.57,5.3458,0,13.455,4.609,17.816,10.126,10.117,12.798,11.374,32.892,2.7149,43.396-5.9354,7.2007-16.285,9.5662-22.823,5.2164zm-96.92-13.58c-4.6868-2.479-9.5819-10.699-10.376-17.423-1.9867-16.82,11.722-35.468,28.075-38.19,9.047-1.5062,17.685,5.8883,20.172,17.269,2.5648,11.735,2.5778,11.629-2.0726,16.931-2.3552,2.6855-6.4137,7.6596-9.0187,11.054-6.81,8.87-11.77,12.2-18.18,12.2-3.0432,0-6.5271-0.74661-8.6-1.843zm134.54-98.456c-5.73-5.742-11.54-10.502-15.2-12.453-8.12-4.327-9.82-6.424-9.82-12.106,0-10.409,11.051-25.175,21.419-28.618,11.048-3.6694,23.383-0.35792,32.444,8.7099,10.632,10.639,13.765,23.744,8.2596,34.549-5.59,10.984-15.62,19.214-23.41,19.214-4.2209,0-4.7826-0.38167-13.682-9.2956z"/>
 </g>
</svg>
